<?xml version="1.0" encoding="UTF-8"?>
<svg id="_レイヤー_1" data-name="レイヤー 1" xmlns="http://www.w3.org/2000/svg" viewBox="0 0 425.2 425.2">
  <defs>
    <style>
      .cls-1 {
        fill: #fff;
      }

      .cls-1, .cls-2 {
        stroke-width: 0px;
      }

      .cls-2 {
        fill: navy;
      }
    </style>
  </defs>
  <g>
    <g>
      <path class="cls-2" d="M315.53,115.6c-8.85-2.92-18.2-4.73-27.9-5.22h-10.86c-9.7.49-19.05,2.3-27.9,5.22h66.66Z"/>
      <path class="cls-2" d="M388.5,211.2c-.17-3.43-.52-6.81-1.01-10.14h-210.56c-.49,3.33-.84,6.71-1.01,10.14h212.59Z"/>
      <path class="cls-2" d="M342.89,129.26c-3.07-2.13-6.24-4.12-9.53-5.92h-102.31c-3.29,1.8-6.46,3.79-9.53,5.92h121.37Z"/>
      <path class="cls-2" d="M358.89,142.92c-2.22-2.31-4.55-4.52-6.97-6.62h-139.43c-2.42,2.1-4.75,4.31-6.97,6.62h153.37Z"/>
      <path class="cls-2" d="M386.89,197.54c-.58-3.2-1.3-6.34-2.16-9.44h-205.05c-.86,3.09-1.58,6.24-2.16,9.44h209.37Z"/>
      <path class="cls-2" d="M370.03,156.57c-1.73-2.52-3.56-4.97-5.49-7.33h-164.68c-1.94,2.36-3.76,4.81-5.49,7.33h175.66Z"/>
      <path class="cls-2" d="M383.46,183.89c-.96-2.97-2.03-5.89-3.24-8.73h-196.05c-1.21,2.85-2.28,5.77-3.24,8.73h202.52Z"/>
      <path class="cls-2" d="M377.98,170.23c-1.33-2.75-2.79-5.42-4.35-8.03h-182.87c-1.56,2.61-3.01,5.28-4.35,8.03h191.56Z"/>
    </g>
    <path class="cls-2" d="M107.94,309.6c8.85,2.92,18.2,4.73,27.9,5.22h10.86c9.7-.49,19.05-2.3,27.9-5.22h-66.66Z"/>
    <path class="cls-2" d="M34.97,214c.17,3.43.52,6.81,1.01,10.14h210.56c.49-3.33.84-6.71,1.01-10.14H34.97Z"/>
    <path class="cls-2" d="M80.58,295.94c3.07,2.13,6.24,4.12,9.53,5.92h102.31c3.29-1.8,6.46-3.79,9.53-5.92h-121.37Z"/>
    <path class="cls-2" d="M64.58,282.28c2.22,2.31,4.55,4.52,6.97,6.62h139.43c2.42-2.1,4.75-4.31,6.97-6.62H64.58Z"/>
    <path class="cls-2" d="M36.58,227.66c.58,3.2,1.3,6.35,2.16,9.44h205.05c.86-3.09,1.58-6.24,2.16-9.44H36.58Z"/>
    <path class="cls-2" d="M53.44,268.63c1.73,2.52,3.56,4.97,5.49,7.33h164.68c1.94-2.36,3.76-4.81,5.49-7.33H53.44Z"/>
    <path class="cls-2" d="M40.01,241.32c.96,2.97,2.03,5.89,3.24,8.73h196.05c1.21-2.85,2.28-5.77,3.24-8.73H40.01Z"/>
    <path class="cls-2" d="M45.49,254.97c1.33,2.75,2.79,5.42,4.35,8.03h182.87c1.56-2.61,3.01-5.28,4.35-8.03H45.49Z"/>
    <path class="cls-2" d="M315.53,115.6c-8.85-2.92-18.2-4.73-27.9-5.22h-10.86c-9.7.49-19.05,2.3-27.9,5.22h66.66Z"/>
    <path class="cls-2" d="M388.5,211.2c-.17-3.43-.52-6.81-1.01-10.14h-210.56c-.49,3.33-.84,6.71-1.01,10.14h212.59Z"/>
    <path class="cls-2" d="M342.89,129.26c-3.07-2.13-6.24-4.12-9.53-5.92h-102.31c-3.29,1.8-6.46,3.79-9.53,5.92h121.37Z"/>
    <path class="cls-2" d="M358.89,142.92c-2.22-2.31-4.55-4.52-6.97-6.62h-139.43c-2.42,2.1-4.75,4.31-6.97,6.62h153.37Z"/>
    <path class="cls-2" d="M386.89,197.54c-.58-3.2-1.3-6.34-2.16-9.44h-205.05c-.86,3.09-1.58,6.24-2.16,9.44h209.37Z"/>
    <path class="cls-2" d="M370.03,156.57c-1.73-2.52-3.56-4.97-5.49-7.33h-164.68c-1.94,2.36-3.76,4.81-5.49,7.33h175.66Z"/>
    <path class="cls-2" d="M383.46,183.89c-.96-2.97-2.03-5.89-3.24-8.73h-196.05c-1.21,2.85-2.28,5.77-3.24,8.73h202.52Z"/>
    <path class="cls-2" d="M377.98,170.23c-1.33-2.75-2.79-5.42-4.35-8.03h-182.87c-1.56,2.61-3.01,5.28-4.35,8.03h191.56Z"/>
    <path class="cls-2" d="M388.63,212.6c0,58.78-47.65,106.44-106.44,106.44s-106.44-47.65-106.44-106.44"/>
    <path class="cls-2" d="M247.7,212.6c0-58.78-47.65-106.44-106.44-106.44s-106.44,47.65-106.44,106.44"/>
  </g>
  <g>
    <path class="cls-1" d="M318.17,212.6c0,19.87-16.1,35.97-35.97,35.97s-35.97-16.1-35.97-35.97,16.1-35.97,35.97-35.97,35.97,16.11,35.97,35.97Z"/>
    <path class="cls-1" d="M177.24,212.6c0,19.87-16.1,35.97-35.97,35.97s-35.97-16.1-35.97-35.97,16.1-35.97,35.97-35.97,35.97,16.11,35.97,35.97Z"/>
  </g>
</svg>